<svg width="43" height="41" viewBox="0 0 43 41" fill="none" xmlns="http://www.w3.org/2000/svg">
<path d="M13.1588 3.20389C17.5075 -0.967378 24.5582 -0.967377 28.9069 3.20389L38.7495 12.6448C43.0982 16.8161 43.0982 23.5791 38.7495 27.7503L28.9069 37.1913C24.5582 41.3625 17.5075 41.3625 13.1588 37.1913L3.31623 27.7503C-1.03249 23.5791 -1.03249 16.8161 3.31623 12.6448L13.1588 3.20389Z" fill="url(#paint0_linear_2572_530)" fill-opacity="0.6"/>
<path d="M29 20C29 24.4183 25.4183 28 21 28C16.5817 28 13 24.4183 13 20C13 15.5817 16.5817 12 21 12C25.4183 12 29 15.5817 29 20Z" fill="#E7AB0F" stroke="#E4E911" stroke-width="2"/>
<path d="M22.2306 19.4198L20.2481 18.8397C20.0187 18.7736 19.859 18.5589 19.859 18.3202C19.859 18.021 20.1013 17.7787 20.4005 17.7787H21.6175C21.8415 17.7787 22.0617 17.8466 22.2453 17.9714C22.3573 18.0467 22.5078 18.0284 22.6032 17.9347L23.2421 17.3106C23.3724 17.184 23.354 16.9729 23.209 16.8609C22.7593 16.5084 22.1976 16.312 21.6212 16.3102V15.4291C21.6212 15.2675 21.489 15.1354 21.3275 15.1354H20.7401C20.5785 15.1354 20.4464 15.2675 20.4464 15.4291V16.3102H20.4005C19.2312 16.3102 18.2913 17.3143 18.3996 18.5056C18.4767 19.3518 19.1229 20.0402 19.9379 20.2788L21.8194 20.8295C22.0489 20.8975 22.2086 21.1104 22.2086 21.349C22.2086 21.6482 21.9663 21.8905 21.6671 21.8905H20.45C20.2261 21.8905 20.0058 21.8226 19.8222 21.6978C19.7103 21.6225 19.5597 21.6409 19.4643 21.7345L18.8255 22.3586C18.6952 22.4853 18.7135 22.6964 18.8585 22.8084C19.3083 23.1608 19.87 23.3572 20.4464 23.3591V24.2402C20.4464 24.4017 20.5785 24.5339 20.7401 24.5339H21.3275C21.489 24.5339 21.6212 24.4017 21.6212 24.2402V23.3554C22.4766 23.3389 23.2788 22.8304 23.5615 22.0209C23.9561 20.8901 23.2934 19.73 22.2306 19.4198Z" fill="#E4E911"/>
<defs>
<linearGradient id="paint0_linear_2572_530" x1="21.1932" y1="0.170621" x2="21.1932" y2="38.5562" gradientUnits="userSpaceOnUse">
<stop stop-color="#2FAEE0"/>
<stop offset="0.221667" stop-color="#48C3F3"/>
<stop offset="0.496667" stop-color="#49BFED"/>
<stop offset="0.686667" stop-color="#37BDF1"/>
<stop offset="0.989583" stop-color="#11A3DB"/>
</linearGradient>
</defs>
</svg>
