<svg width="25" height="25" viewBox="0 0 25 25" fill="none" xmlns="http://www.w3.org/2000/svg">
<path d="M23.3721 12.0754C23.3721 18.1506 18.4472 23.0754 12.3721 23.0754C6.29694 23.0754 1.37207 18.1506 1.37207 12.0754C1.37207 6.00031 6.29694 1.07544 12.3721 1.07544C18.4472 1.07544 23.3721 6.00031 23.3721 12.0754Z" fill="#1FA3DB" stroke="#115BE9" stroke-width="2"/>
<path d="M10.8626 17.4399L6.18255 12.21C5.90139 11.8958 5.90139 11.3863 6.18255 11.0721L7.20076 9.93419C7.48193 9.61996 7.93784 9.61996 8.219 9.93419L11.3717 13.4573L18.1244 5.91119C18.4055 5.59699 18.8614 5.59699 19.1426 5.91119L20.1608 7.04907C20.442 7.36327 20.442 7.87272 20.1608 8.18695L11.8808 17.4399C11.5996 17.7541 11.1437 17.7541 10.8626 17.4399Z" fill="url(#paint0_linear_2572_523)"/>
<defs>
<linearGradient id="paint0_linear_2572_523" x1="19.1717" y1="7.00887" x2="8.20265" y2="14.5581" gradientUnits="userSpaceOnUse">
<stop stop-color="#CD8D0F"/>
<stop offset="0.53" stop-color="#DCCE4E"/>
<stop offset="1" stop-color="#F7DF05"/>
</linearGradient>
</defs>
</svg>
