<svg width="26" height="28" viewBox="0 0 26 28" fill="none" xmlns="http://www.w3.org/2000/svg">
<path d="M6.91489 10.4167C9.06229 10.4167 10.8045 8.08377 10.8045 5.20833C10.8045 2.3329 9.06229 0 6.91489 0C4.7675 0 3.02527 2.3329 3.02527 5.20833C3.02527 8.08377 4.7675 10.4167 6.91489 10.4167ZM10.3723 11.5741H8.88402C8.28437 11.943 7.61719 12.1528 6.91489 12.1528C6.2126 12.1528 5.54812 11.943 4.94577 11.5741H3.45745C1.54775 11.5741 0 13.6466 0 16.2037V16.7824C0 17.7409 0.580743 18.5185 1.29654 18.5185H12.5332C13.249 18.5185 13.8298 17.7409 13.8298 16.7824V16.2037C13.8298 13.6466 12.282 11.5741 10.3723 11.5741Z" fill="black"/>
<path d="M19.0853 10.4167C21.2327 10.4167 22.9749 8.08377 22.9749 5.20833C22.9749 2.3329 21.2327 0 19.0853 0C16.9379 0 15.1957 2.3329 15.1957 5.20833C15.1957 8.08377 16.9379 10.4167 19.0853 10.4167ZM22.5428 11.5741H21.0544C20.4548 11.943 19.7876 12.1528 19.0853 12.1528C18.383 12.1528 17.7185 11.943 17.1162 11.5741H15.6279C13.7182 11.5741 12.1704 13.6466 12.1704 16.2037V16.7824C12.1704 17.7409 12.7512 18.5185 13.467 18.5185H24.7037C25.4195 18.5185 26.0002 17.7409 26.0002 16.7824V16.2037C26.0002 13.6466 24.4524 11.5741 22.5428 11.5741Z" fill="#616F77"/>
<g filter="url(#filter0_d_2572_576)">
<path d="M12.9999 11.8981C15.1473 11.8981 16.8895 9.56521 16.8895 6.68978C16.8895 3.81434 15.1473 1.48145 12.9999 1.48145C10.8525 1.48145 9.11023 3.81434 9.11023 6.68978C9.11023 9.56521 10.8525 11.8981 12.9999 11.8981ZM16.4573 13.0555H14.969C14.3693 13.4244 13.7021 13.6342 12.9999 13.6342C12.2976 13.6342 11.6331 13.4244 11.0307 13.0555H9.54241C7.63271 13.0555 6.08496 15.128 6.08496 17.6851V18.2639C6.08496 19.2223 6.6657 20 7.3815 20H18.6182C19.334 20 19.9147 19.2223 19.9147 18.2639V17.6851C19.9147 15.128 18.367 13.0555 16.4573 13.0555Z" fill="url(#paint0_linear_2572_576)"/>
</g>
<defs>
<filter id="filter0_d_2572_576" x="2.08496" y="1.48145" width="21.8296" height="26.5186" filterUnits="userSpaceOnUse" color-interpolation-filters="sRGB">
<feFlood flood-opacity="0" result="BackgroundImageFix"/>
<feColorMatrix in="SourceAlpha" type="matrix" values="0 0 0 0 0 0 0 0 0 0 0 0 0 0 0 0 0 0 127 0" result="hardAlpha"/>
<feOffset dy="4"/>
<feGaussianBlur stdDeviation="2"/>
<feComposite in2="hardAlpha" operator="out"/>
<feColorMatrix type="matrix" values="0 0 0 0 0 0 0 0 0 0 0 0 0 0 0 0 0 0 0.25 0"/>
<feBlend mode="normal" in2="BackgroundImageFix" result="effect1_dropShadow_2572_576"/>
<feBlend mode="normal" in="SourceGraphic" in2="effect1_dropShadow_2572_576" result="shape"/>
</filter>
<linearGradient id="paint0_linear_2572_576" x1="12.9999" y1="1.48145" x2="12.9999" y2="20" gradientUnits="userSpaceOnUse">
<stop stop-color="#E4E911"/>
<stop offset="0.385" stop-color="#B9740E"/>
<stop offset="0.665" stop-color="#9FA20C"/>
<stop offset="1" stop-color="#FFAC4A"/>
</linearGradient>
</defs>
</svg>
