<svg width="22" height="22" viewBox="0 0 22 22" fill="none" xmlns="http://www.w3.org/2000/svg">
<rect x="2" y="2" width="15" height="17" fill="white"/>
<path d="M18.75 0H3.125C1.39893 0 0 1.39893 0 3.125V18.75C0 20.4761 1.39893 21.875 3.125 21.875H18.75C20.4761 21.875 21.875 20.4761 21.875 18.75V3.125C21.875 1.39893 20.4761 0 18.75 0ZM6.25 17.1875C5.38721 17.1875 4.6875 16.4878 4.6875 15.625C4.6875 14.7622 5.38721 14.0625 6.25 14.0625C7.11279 14.0625 7.8125 14.7622 7.8125 15.625C7.8125 16.4878 7.11279 17.1875 6.25 17.1875ZM6.25 12.5C5.38721 12.5 4.6875 11.8003 4.6875 10.9375C4.6875 10.0747 5.38721 9.375 6.25 9.375C7.11279 9.375 7.8125 10.0747 7.8125 10.9375C7.8125 11.8003 7.11279 12.5 6.25 12.5ZM6.25 7.8125C5.38721 7.8125 4.6875 7.11279 4.6875 6.25C4.6875 5.38721 5.38721 4.6875 6.25 4.6875C7.11279 4.6875 7.8125 5.38721 7.8125 6.25C7.8125 7.11279 7.11279 7.8125 6.25 7.8125ZM15.625 17.1875C14.7622 17.1875 14.0625 16.4878 14.0625 15.625C14.0625 14.7622 14.7622 14.0625 15.625 14.0625C16.4878 14.0625 17.1875 14.7622 17.1875 15.625C17.1875 16.4878 16.4878 17.1875 15.625 17.1875ZM15.625 12.5C14.7622 12.5 14.0625 11.8003 14.0625 10.9375C14.0625 10.0747 14.7622 9.375 15.625 9.375C16.4878 9.375 17.1875 10.0747 17.1875 10.9375C17.1875 11.8003 16.4878 12.5 15.625 12.5ZM15.625 7.8125C14.7622 7.8125 14.0625 7.11279 14.0625 6.25C14.0625 5.38721 14.7622 4.6875 15.625 4.6875C16.4878 4.6875 17.1875 5.38721 17.1875 6.25C17.1875 7.11279 16.4878 7.8125 15.625 7.8125Z" fill="url(#paint0_linear_2576_588)"/>
<defs>
<linearGradient id="paint0_linear_2576_588" x1="10.9375" y1="0" x2="10.9375" y2="21.875" gradientUnits="userSpaceOnUse">
<stop stop-color="#E4E911"/>
<stop offset="0.415" stop-color="#BF754C"/>
<stop offset="1" stop-color="#9E5B0D"/>
</linearGradient>
</defs>
</svg>
