<svg width="18" height="22" viewBox="0 0 18 22" fill="none" xmlns="http://www.w3.org/2000/svg">
<path d="M0.5 4.69824C0.5 4.4221 0.723858 4.19824 1 4.19824H3C3.27614 4.19824 3.5 4.4221 3.5 4.69824V20.5759C3.5 20.852 3.27614 21.0759 3 21.0759H1C0.723858 21.0759 0.5 20.852 0.5 20.5759V4.69824Z" fill="url(#paint0_linear_2572_548)" stroke="#A37707"/>
<path d="M7.5 10.6573C7.5 10.3812 7.72386 10.1573 8 10.1573H10C10.2761 10.1573 10.5 10.3812 10.5 10.6573V20.5758C10.5 20.8519 10.2761 21.0758 10 21.0758H8C7.72386 21.0758 7.5 20.8519 7.5 20.5758V10.6573Z" fill="url(#paint1_linear_2572_548)" stroke="#A37707"/>
<path d="M14.5 1.71851C14.5 1.44236 14.7239 1.21851 15 1.21851H16.9324C17.2085 1.21851 17.4324 1.44236 17.4324 1.71851V21C17.4324 21.2761 17.2085 21.5 16.9324 21.5H15C14.7239 21.5 14.5 21.2761 14.5 21V1.71851Z" fill="url(#paint2_linear_2572_548)" stroke="#A37707"/>
<defs>
<linearGradient id="paint0_linear_2572_548" x1="2" y1="3.69824" x2="2" y2="21.5759" gradientUnits="userSpaceOnUse">
<stop stop-color="#D4A52B"/>
<stop offset="0.491667" stop-color="#E4E911"/>
<stop offset="0.976667" stop-color="#8B7115"/>
</linearGradient>
<linearGradient id="paint1_linear_2572_548" x1="9" y1="9.65735" x2="9" y2="21.5758" gradientUnits="userSpaceOnUse">
<stop stop-color="#D4A52B"/>
<stop offset="0.491667" stop-color="#E4E911"/>
<stop offset="0.976667" stop-color="#8B7115"/>
</linearGradient>
<linearGradient id="paint2_linear_2572_548" x1="15.9662" y1="0.718506" x2="15.9662" y2="22" gradientUnits="userSpaceOnUse">
<stop stop-color="#D4A52B"/>
<stop offset="0.491667" stop-color="#E4E911"/>
<stop offset="0.976667" stop-color="#8B7115"/>
</linearGradient>
</defs>
</svg>
