<svg width="25" height="25" viewBox="0 0 25 25" fill="none" xmlns="http://www.w3.org/2000/svg">
<ellipse cx="12.5" cy="11.8301" rx="9.5" ry="8.5" fill="#0F0C0D"/>
<path d="M24.2188 12.4395C24.2188 19.1273 18.7972 24.5488 12.1094 24.5488C5.42153 24.5488 0 19.1273 0 12.4395C0 5.75161 5.42153 0.330078 12.1094 0.330078C18.7972 0.330078 24.2188 5.75161 24.2188 12.4395ZM10.7087 18.8513L19.6931 9.86689C19.9981 9.56182 19.9981 9.06714 19.6931 8.76206L18.5882 7.65723C18.2832 7.3521 17.7885 7.3521 17.4833 7.65723L10.1562 14.9843L6.7354 11.5634C6.43032 11.2583 5.93564 11.2583 5.63052 11.5634L4.52568 12.6683C4.22061 12.9733 4.22061 13.468 4.52568 13.7731L9.60381 18.8512C9.90894 19.1563 10.4036 19.1563 10.7087 18.8513Z" fill="#5D637C"/>
</svg>
