<svg width="48" height="48" viewBox="0 0 48 48" fill="none" xmlns="http://www.w3.org/2000/svg">
<path d="M46.88 24.0001C46.88 36.6695 36.6094 46.9401 23.94 46.9401C11.2706 46.9401 1 36.6695 1 24.0001C1 11.3306 11.2706 1.06006 23.94 1.06006C36.6094 1.06006 46.88 11.3306 46.88 24.0001Z" fill="#E7AB0F" stroke="#E4E911" stroke-width="2"/>
<path d="M27.2131 22.4565L21.9396 20.9136C21.3293 20.7378 20.9045 20.1665 20.9045 19.5317C20.9045 18.7358 21.549 18.0913 22.3449 18.0913H25.5822C26.1779 18.0913 26.7638 18.272 27.2521 18.604C27.55 18.8042 27.9504 18.7554 28.2043 18.5063L29.9035 16.8462C30.2502 16.5093 30.2013 15.9478 29.8156 15.6499C28.6193 14.7124 27.1252 14.1899 25.592 14.1851V11.8413C25.592 11.4116 25.2404 11.0601 24.8107 11.0601H23.2482C22.8185 11.0601 22.467 11.4116 22.467 11.8413V14.1851H22.3449C19.2345 14.1851 16.7345 16.856 17.0226 20.0249C17.2277 22.2759 18.9465 24.1069 21.1144 24.7417L26.1193 26.2065C26.7297 26.3872 27.1545 26.9536 27.1545 27.5884C27.1545 28.3843 26.5099 29.0288 25.714 29.0288H22.4767C21.881 29.0288 21.2951 28.8481 20.8068 28.5161C20.509 28.3159 20.1086 28.3647 19.8547 28.6138L18.1554 30.2739C17.8088 30.6108 17.8576 31.1724 18.2433 31.4702C19.4396 32.4077 20.9338 32.9302 22.467 32.9351V35.2788C22.467 35.7085 22.8185 36.0601 23.2482 36.0601H24.8107C25.2404 36.0601 25.592 35.7085 25.592 35.2788V32.9253C27.8674 32.8813 30.0012 31.5288 30.7531 29.3755C31.8029 26.3677 30.0402 23.2817 27.2131 22.4565Z" fill="#E4E911"/>
</svg>
