<svg width="21" height="23" viewBox="0 0 21 23" fill="none" xmlns="http://www.w3.org/2000/svg">
<path d="M17.2802 0.891602C17.5678 0.891602 17.801 1.12479 17.801 1.41243L17.801 4.53744C17.801 4.82508 17.5678 5.05827 17.2802 5.05827L4.25936 5.05827C3.97171 5.05827 3.73853 4.82508 3.73853 4.53743L3.73853 1.41243C3.73853 1.12479 3.97171 0.891601 4.25936 0.891601L17.2802 0.891602Z" fill="#348304"/>
<path fill-rule="evenodd" clip-rule="evenodd" d="M18.322 1.41239L18.322 4.53739C18.322 5.11269 17.8557 5.57906 17.2804 5.57906L4.25952 5.57906C3.68422 5.57906 3.21785 5.11269 3.21785 4.53739L3.21785 1.41239C3.21785 0.837097 3.68422 0.370727 4.25952 0.370727L17.2804 0.370727C17.8557 0.370728 18.322 0.837098 18.322 1.41239ZM17.8012 1.41239C17.8012 1.12475 17.568 0.891561 17.2804 0.891561L4.25952 0.89156C3.97187 0.89156 3.73869 1.12475 3.73869 1.41239L3.73869 4.53739C3.73869 4.82504 3.97187 5.05823 4.25952 5.05823L17.2804 5.05823C17.568 5.05823 17.8012 4.82504 17.8012 4.53739L17.8012 1.41239Z" fill="#245E01"/>
<path fill-rule="evenodd" clip-rule="evenodd" d="M4.21191 1.15202C4.21191 1.00819 4.32851 0.891602 4.47233 0.891602H17.2152C17.359 0.891602 17.4756 1.00819 17.4756 1.15202C17.4756 1.29584 17.359 1.41243 17.2152 1.41243H4.47233C4.32851 1.41243 4.21191 1.29584 4.21191 1.15202Z" fill="#3B9703"/>
<path fill-rule="evenodd" clip-rule="evenodd" d="M4.11279 2.66569C4.11279 2.52187 4.22939 2.40527 4.37321 2.40527H17.1161C17.2599 2.40527 17.3765 2.52187 17.3765 2.66569C17.3765 2.80951 17.2599 2.92611 17.1161 2.92611H4.37321C4.22939 2.92611 4.11279 2.80951 4.11279 2.66569Z" fill="#296A02"/>
<path fill-rule="evenodd" clip-rule="evenodd" d="M4.11279 1.70536C4.11279 1.56154 4.22939 1.44495 4.37321 1.44495H17.1161C17.2599 1.44495 17.3765 1.56154 17.3765 1.70536C17.3765 1.84919 17.2599 1.96578 17.1161 1.96578H4.37321C4.22939 1.96578 4.11279 1.84919 4.11279 1.70536Z" fill="#296A02"/>
<path fill-rule="evenodd" clip-rule="evenodd" d="M4.11279 3.60966C4.11279 3.46584 4.22939 3.34924 4.37321 3.34924H17.1161C17.2599 3.34924 17.3765 3.46584 17.3765 3.60966C17.3765 3.75348 17.2599 3.87008 17.1161 3.87008H4.37321C4.22939 3.87008 4.11279 3.75348 4.11279 3.60966Z" fill="#296A02"/>
<path fill-rule="evenodd" clip-rule="evenodd" d="M4.21191 4.47233C4.21191 4.32851 4.32851 4.21191 4.47233 4.21191H17.2152C17.359 4.21191 17.4756 4.32851 17.4756 4.47233C17.4756 4.61616 17.359 4.73275 17.2152 4.73275H4.47233C4.32851 4.73275 4.21191 4.61616 4.21191 4.47233Z" fill="#296A02"/>
<path d="M4.54602 1.09643C4.34262 0.893036 4.01285 0.893036 3.80945 1.09643L1.59974 3.30614C1.39634 3.50954 1.39634 3.83931 1.59974 4.04271L10.4833 12.9262C10.6867 13.1296 11.0164 13.1296 11.2198 12.9262L13.4295 10.7165C13.6329 10.5131 13.6329 10.1833 13.4295 9.97995L4.54602 1.09643Z" fill="#47B405"/>
<path fill-rule="evenodd" clip-rule="evenodd" d="M3.44116 0.728147L1.23146 2.93786C0.82466 3.34465 0.82466 4.0042 1.23146 4.41099L10.115 13.2945C10.5218 13.7013 11.1813 13.7013 11.5881 13.2945L13.7978 11.0848C14.2046 10.678 14.2046 10.0185 13.7978 9.61166L4.9143 0.728146C4.50751 0.32135 3.84796 0.321351 3.44116 0.728147ZM3.80945 1.09643C4.01285 0.893033 4.34262 0.893033 4.54602 1.09643L13.4295 9.97995C13.6329 10.1833 13.6329 10.5131 13.4295 10.7165L11.2198 12.9262C11.0164 13.1296 10.6867 13.1296 10.4833 12.9262L1.59974 4.04271C1.39634 3.83931 1.39634 3.50954 1.59974 3.30614L3.80945 1.09643Z" fill="#245E01"/>
<path d="M16.9936 1.10665C17.1962 0.898477 17.5299 0.896188 17.7352 1.10156L19.9449 3.3112C20.1463 3.51263 20.1485 3.83851 19.9499 4.04268L11.3167 12.9161C11.1141 13.1243 10.7805 13.1266 10.5751 12.9212L8.36546 10.7115C8.16403 10.5101 8.16179 10.1842 8.36044 9.98006L16.9936 1.10665Z" fill="#47B405"/>
<path fill-rule="evenodd" clip-rule="evenodd" d="M18.1035 0.733275L20.3132 2.94291C20.716 3.34577 20.7205 3.99753 20.3232 4.40588L11.69 13.2793C11.2849 13.6956 10.6176 13.7002 10.2068 13.2895L7.99717 11.0798C7.59432 10.677 7.58984 10.0252 7.98713 9.61686L16.6203 0.74345C17.0254 0.327105 17.6928 0.322527 18.1035 0.733275ZM17.7352 1.10156C17.5299 0.896186 17.1962 0.898475 16.9936 1.10665L8.36044 9.98006C8.16179 10.1842 8.16403 10.5101 8.36546 10.7115L10.5751 12.9212C10.7805 13.1266 11.1141 13.1243 11.3167 12.9161L19.9499 4.04268C20.1485 3.83851 20.1463 3.51263 19.9449 3.3112L17.7352 1.10156Z" fill="#245E01"/>
<path fill-rule="evenodd" clip-rule="evenodd" d="M17.4147 1.32507C17.5168 1.4263 17.5176 1.59119 17.4163 1.69335L12.0941 7.06444C11.9928 7.16661 11.828 7.16736 11.7258 7.06613C11.6236 6.96489 11.6229 6.80001 11.7241 6.69784L17.0464 1.32675C17.1476 1.22459 17.3125 1.22384 17.4147 1.32507Z" fill="#64D91D"/>
<path fill-rule="evenodd" clip-rule="evenodd" d="M1.66636 3.50682C1.76806 3.40512 1.93295 3.40512 2.03465 3.50682L5.42006 6.89223C5.52176 6.99393 5.52176 7.15882 5.42006 7.26052C5.31836 7.36222 5.15348 7.36222 5.05178 7.26052L1.66636 3.8751C1.56466 3.7734 1.56466 3.60852 1.66636 3.50682Z" fill="#64D91D"/>
<path d="M18.474 2.81843C18.3698 2.9227 18.2028 2.92476 18.101 2.82303C17.9993 2.7213 18.0014 2.55431 18.1056 2.45003C18.2099 2.34576 18.3769 2.3437 18.4786 2.44543C18.5804 2.54716 18.5783 2.71416 18.474 2.81843Z" fill="#3C9A03"/>
<path d="M17.6819 3.46312C17.5522 3.59283 17.3445 3.59539 17.2179 3.46885C17.0914 3.34231 17.0939 3.13458 17.2236 3.00487C17.3533 2.87517 17.5611 2.8726 17.6876 2.99914C17.8142 3.12569 17.8116 3.33342 17.6819 3.46312Z" fill="#3C9A03"/>
<path d="M18.5258 3.66699C18.4609 3.73184 18.357 3.73312 18.2938 3.66985C18.2305 3.60658 18.2318 3.50271 18.2966 3.43786C18.3615 3.37301 18.4654 3.37173 18.5286 3.435C18.5919 3.49827 18.5906 3.60213 18.5258 3.66699Z" fill="#3C9A03"/>
<path d="M16.6498 5.86694C16.5849 5.93179 16.4811 5.93307 16.4178 5.8698C16.3545 5.80653 16.3558 5.70266 16.4207 5.63781C16.4855 5.57296 16.5894 5.57168 16.6526 5.63495C16.7159 5.69822 16.7146 5.80208 16.6498 5.86694Z" fill="#3C9A03"/>
<path d="M17.5914 4.37206C17.5266 4.43692 17.4227 4.4382 17.3594 4.37493C17.2962 4.31166 17.2975 4.20779 17.3623 4.14294C17.4272 4.07809 17.531 4.0768 17.5943 4.14007C17.6576 4.20335 17.6563 4.30721 17.5914 4.37206Z" fill="#3C9A03"/>
<path d="M16.6469 6.76366C16.582 6.82852 16.4781 6.8298 16.4149 6.76653C16.3516 6.70326 16.3529 6.59939 16.4177 6.53454C16.4826 6.46969 16.5864 6.46841 16.6497 6.53168C16.713 6.59495 16.7117 6.69881 16.6469 6.76366Z" fill="#3C9A03"/>
<path d="M16.8846 4.17407C16.8198 4.23892 16.7159 4.2402 16.6527 4.17693C16.5894 4.11366 16.5907 4.00979 16.6555 3.94494C16.7204 3.88009 16.8242 3.87881 16.8875 3.94208C16.9508 4.00535 16.9495 4.10921 16.8846 4.17407Z" fill="#3C9A03"/>
<path d="M17.413 6.02953C17.3481 6.09439 17.2443 6.09567 17.181 6.0324C17.1177 5.96913 17.119 5.86526 17.1838 5.80041C17.2487 5.73556 17.3526 5.73427 17.4158 5.79755C17.4791 5.86082 17.4778 5.96468 17.413 6.02953Z" fill="#3C9A03"/>
<path d="M19.3121 3.25585C19.2473 3.3207 19.1434 3.32199 19.0801 3.25872C19.0169 3.19545 19.0182 3.09158 19.083 3.02673C19.1479 2.96188 19.2517 2.96059 19.315 3.02386C19.3783 3.08713 19.377 3.191 19.3121 3.25585Z" fill="#3C9A03"/>
<path d="M18.453 4.61661C18.3475 4.72215 18.1784 4.72424 18.0755 4.62127C17.9725 4.5183 17.9746 4.34926 18.0801 4.24372C18.1857 4.13817 18.3547 4.13609 18.4577 4.23906C18.5607 4.34203 18.5586 4.51106 18.453 4.61661Z" fill="#3C9A03"/>
<path d="M19.4591 3.98331C19.3536 4.08885 19.1845 4.09094 19.0816 3.98797C18.9786 3.885 18.9807 3.71596 19.0862 3.61042C19.1918 3.50487 19.3608 3.50279 19.4638 3.60576C19.5668 3.70873 19.5647 3.87776 19.4591 3.98331Z" fill="#3C9A03"/>
<path d="M17.421 5.28836C17.3155 5.3939 17.1465 5.39599 17.0435 5.29302C16.9405 5.19005 16.9426 5.02102 17.0482 4.91547C17.1537 4.80993 17.3227 4.80784 17.4257 4.91081C17.5287 5.01378 17.5266 5.18281 17.421 5.28836Z" fill="#3C9A03"/>
<path d="M18.1527 5.40295C18.0879 5.4678 17.984 5.46908 17.9207 5.40581C17.8575 5.34254 17.8587 5.23868 17.9236 5.17382C17.9884 5.10897 18.0923 5.10769 18.1556 5.17096C18.2188 5.23423 18.2176 5.33809 18.1527 5.40295Z" fill="#3C9A03"/>
<path d="M17.8982 14.5303C17.8982 18.4135 14.7502 21.5615 10.8669 21.5615C6.98369 21.5615 3.83569 18.4135 3.83569 14.5303C3.83569 10.647 6.98369 7.49902 10.8669 7.49902C14.7502 7.49902 17.8982 10.647 17.8982 14.5303Z" fill="#FFBB0D"/>
<path fill-rule="evenodd" clip-rule="evenodd" d="M18.4191 14.5302C18.4191 18.7011 15.0379 22.0823 10.867 22.0823C6.69612 22.0823 3.31494 18.7011 3.31494 14.5302C3.31494 10.3593 6.69612 6.97815 10.867 6.97815C15.0379 6.97815 18.4191 10.3593 18.4191 14.5302ZM10.867 21.5615C14.7503 21.5615 17.8983 18.4135 17.8983 14.5302C17.8983 10.647 14.7503 7.49898 10.867 7.49898C6.98377 7.49898 3.83577 10.647 3.83577 14.5302C3.83577 18.4135 6.98377 21.5615 10.867 21.5615Z" fill="#E89B05"/>
<path fill-rule="evenodd" clip-rule="evenodd" d="M4.35661 14.7906C4.21278 14.7906 4.09619 14.6741 4.09619 14.5302C4.09619 10.7908 7.1276 7.7594 10.867 7.7594C11.0108 7.7594 11.1274 7.87599 11.1274 8.01982C11.1274 8.16364 11.0108 8.28023 10.867 8.28023C7.41525 8.28023 4.61702 11.0785 4.61702 14.5302C4.61702 14.6741 4.50043 14.7906 4.35661 14.7906Z" fill="#E8AA0A"/>
<path fill-rule="evenodd" clip-rule="evenodd" d="M17.3775 14.2698C17.5213 14.2698 17.6379 14.3864 17.6379 14.5302C17.6379 18.2696 14.6065 21.301 10.8671 21.301C10.7233 21.301 10.6067 21.1844 10.6067 21.0406C10.6067 20.8968 10.7233 20.7802 10.8671 20.7802C14.3189 20.7802 17.1171 17.982 17.1171 14.5302C17.1171 14.3864 17.2337 14.2698 17.3775 14.2698Z" fill="#E8AA0A"/>
<path d="M16.0754 14.5302C16.0754 17.4067 13.7435 19.7386 10.867 19.7386C7.99054 19.7386 5.65869 17.4067 5.65869 14.5302C5.65869 11.6537 7.99054 9.3219 10.867 9.3219C13.7435 9.3219 16.0754 11.6537 16.0754 14.5302Z" fill="#FFDD28"/>
<path fill-rule="evenodd" clip-rule="evenodd" d="M16.5963 14.5302C16.5963 17.6943 14.0312 20.2594 10.8671 20.2594C7.70297 20.2594 5.13794 17.6943 5.13794 14.5302C5.13794 11.3661 7.70297 8.80103 10.8671 8.80103C14.0312 8.80103 16.5963 11.3661 16.5963 14.5302ZM10.8671 19.7385C13.7436 19.7385 16.0754 17.4067 16.0754 14.5302C16.0754 11.6537 13.7436 9.32186 10.8671 9.32186C7.99062 9.32186 5.65877 11.6537 5.65877 14.5302C5.65877 17.4067 7.99062 19.7385 10.8671 19.7385Z" fill="#E89B05"/>
<path fill-rule="evenodd" clip-rule="evenodd" d="M10.867 18.9573C13.312 18.9573 15.2941 16.9752 15.2941 14.5302C15.2941 14.3864 15.4107 14.2698 15.5545 14.2698C15.6983 14.2698 15.8149 14.3864 15.8149 14.5302C15.8149 17.2629 13.5997 19.4781 10.867 19.4781C10.7232 19.4781 10.6066 19.3616 10.6066 19.2177C10.6066 19.0739 10.7232 18.9573 10.867 18.9573Z" fill="#ECC704"/>
<path fill-rule="evenodd" clip-rule="evenodd" d="M10.8671 10.1031C8.4221 10.1031 6.44002 12.0852 6.44002 14.5302C6.44002 14.674 6.32343 14.7906 6.17961 14.7906C6.03578 14.7906 5.91919 14.674 5.91919 14.5302C5.91919 11.7975 8.13445 9.58228 10.8671 9.58228C11.0109 9.58228 11.1275 9.69887 11.1275 9.84269C11.1275 9.98652 11.0109 10.1031 10.8671 10.1031Z" fill="#FFEF9C"/>
</svg>
