<svg width="25" height="21" viewBox="0 0 25 21" fill="none" xmlns="http://www.w3.org/2000/svg">
<path d="M15.625 4.25C15.9958 4.25 16.3584 4.14003 16.6667 3.93401C16.975 3.72798 17.2154 3.43514 17.3573 3.09253C17.4992 2.74992 17.5363 2.37292 17.464 2.00921C17.3916 1.64549 17.2131 1.3114 16.9508 1.04918C16.6886 0.786952 16.3545 0.608376 15.9908 0.536028C15.6271 0.463681 15.2501 0.500812 14.9075 0.642727C14.5649 0.784641 14.272 1.02496 14.066 1.33331C13.86 1.64165 13.75 2.00416 13.75 2.375C13.75 2.87228 13.9475 3.3492 14.2992 3.70083C14.6508 4.05246 15.1277 4.25 15.625 4.25ZM15.4688 8.97656C15.6904 9.15406 15.966 9.25054 16.25 9.25H18.75C19.0815 9.25 19.3995 9.1183 19.6339 8.88388C19.8683 8.64946 20 8.33152 20 8C20 7.66848 19.8683 7.35054 19.6339 7.11612C19.3995 6.8817 19.0815 6.75 18.75 6.75H16.6883L13.9063 4.52344C13.6792 4.34115 13.3955 4.24402 13.1044 4.24887C12.8132 4.25372 12.533 4.36025 12.3121 4.55L7.93711 8.3C7.79057 8.42564 7.67512 8.58352 7.5998 8.76125C7.52449 8.93899 7.49136 9.13175 7.50301 9.32443C7.51467 9.51711 7.57079 9.70447 7.66698 9.87183C7.76316 10.0392 7.89681 10.182 8.05742 10.2891L11.25 12.4188V16.75C11.25 17.0815 11.3817 17.3995 11.6161 17.6339C11.8505 17.8683 12.1685 18 12.5 18C12.8315 18 13.1495 17.8683 13.3839 17.6339C13.6183 17.3995 13.75 17.0815 13.75 16.75V11.75C13.75 11.5443 13.6991 11.3417 13.602 11.1603C13.5049 10.9789 13.3646 10.8243 13.1934 10.7102L11.5777 9.6332L13.8531 7.6832L15.4688 8.97656ZM20 10.5C19.0111 10.5 18.0444 10.7932 17.2222 11.3427C16.3999 11.8921 15.759 12.673 15.3806 13.5866C15.0022 14.5002 14.9031 15.5055 15.0961 16.4755C15.289 17.4454 15.7652 18.3363 16.4645 19.0355C17.1637 19.7348 18.0546 20.211 19.0246 20.4039C19.9945 20.5969 20.9998 20.4978 21.9134 20.1194C22.827 19.741 23.6079 19.1001 24.1574 18.2779C24.7068 17.4556 25 16.4889 25 15.5C25 14.1739 24.4732 12.9021 23.5355 11.9645C22.5979 11.0268 21.3261 10.5 20 10.5ZM20 18C19.5055 18 19.0222 17.8534 18.6111 17.5787C18.2 17.304 17.8795 16.9135 17.6903 16.4567C17.5011 15.9999 17.4516 15.4972 17.548 15.0123C17.6445 14.5273 17.8826 14.0819 18.2322 13.7322C18.5819 13.3826 19.0273 13.1445 19.5123 13.048C19.9972 12.9516 20.4999 13.0011 20.9567 13.1903C21.4135 13.3795 21.804 13.7 22.0787 14.1111C22.3534 14.5222 22.5 15.0055 22.5 15.5C22.5 16.163 22.2366 16.7989 21.7678 17.2678C21.2989 17.7366 20.663 18 20 18ZM5 10.5C4.0111 10.5 3.0444 10.7932 2.22215 11.3427C1.39991 11.8921 0.759043 12.673 0.380605 13.5866C0.00216641 14.5002 -0.0968503 15.5055 0.0960758 16.4755C0.289002 17.4454 0.765206 18.3363 1.46447 19.0355C2.16373 19.7348 3.05465 20.211 4.02455 20.4039C4.99446 20.5969 5.99979 20.4978 6.91342 20.1194C7.82705 19.741 8.60794 19.1001 9.15735 18.2779C9.70676 17.4556 10 16.4889 10 15.5C10 14.1739 9.47322 12.9021 8.53554 11.9645C7.59785 11.0268 6.32609 10.5 5 10.5ZM5 18C4.50555 18 4.0222 17.8534 3.61108 17.5787C3.19995 17.304 2.87952 16.9135 2.6903 16.4567C2.50108 15.9999 2.45158 15.4972 2.54804 15.0123C2.6445 14.5273 2.8826 14.0819 3.23224 13.7322C3.58187 13.3826 4.02732 13.1445 4.51228 13.048C4.99723 12.9516 5.4999 13.0011 5.95671 13.1903C6.41353 13.3795 6.80397 13.7 7.07868 14.1111C7.35338 14.5222 7.5 15.0055 7.5 15.5C7.5 16.163 7.23661 16.7989 6.76777 17.2678C6.29893 17.7366 5.66304 18 5 18Z" fill="white" fill-opacity="0.6"/>
</svg>
