<svg width="25" height="20" viewBox="0 0 25 20" fill="none" xmlns="http://www.w3.org/2000/svg">
<path d="M24.4134 6.35498H21.4901L20.6776 4.32373C19.8426 2.23535 17.8499 0.88623 15.6004 0.88623H9.39924C7.15021 0.88623 5.15705 2.23535 4.3216 4.32373L3.5091 6.35498H0.586248C0.204901 6.35498 -0.0748846 6.71338 0.0178888 7.08301L0.310858 8.25488C0.375799 8.51562 0.610174 8.69873 0.879217 8.69873H1.8592C1.20344 9.27148 0.781072 10.104 0.781072 11.0425V13.3862C0.781072 14.1733 1.08185 14.8838 1.56232 15.4336V18.0737C1.56232 18.9365 2.26203 19.6362 3.12482 19.6362H4.68732C5.55012 19.6362 6.24982 18.9365 6.24982 18.0737V16.5112H18.7498V18.0737C18.7498 18.9365 19.4495 19.6362 20.3123 19.6362H21.8748C22.7376 19.6362 23.4373 18.9365 23.4373 18.0737V15.4336C23.9178 14.8843 24.2186 14.1738 24.2186 13.3862V11.0425C24.2186 10.104 23.7962 9.27148 23.1409 8.69873H24.1209C24.39 8.69873 24.6243 8.51562 24.6893 8.25488L24.9822 7.08301C25.0745 6.71338 24.7947 6.35498 24.4134 6.35498ZM7.22297 5.48438C7.57892 4.59473 8.44074 4.01123 9.39924 4.01123H15.6004C16.5589 4.01123 17.4207 4.59473 17.7767 5.48438L18.7498 7.91748H6.24982L7.22297 5.48438ZM4.68732 13.3765C3.74982 13.3765 3.12482 12.7534 3.12482 11.8188C3.12482 10.8843 3.74982 10.2612 4.68732 10.2612C5.62482 10.2612 7.03107 11.6631 7.03107 12.5977C7.03107 13.5322 5.62482 13.3765 4.68732 13.3765ZM20.3123 13.3765C19.3748 13.3765 17.9686 13.5322 17.9686 12.5977C17.9686 11.6631 19.3748 10.2612 20.3123 10.2612C21.2498 10.2612 21.8748 10.8843 21.8748 11.8188C21.8748 12.7534 21.2498 13.3765 20.3123 13.3765Z" fill="white" fill-opacity="0.6"/>
</svg>
