<svg width="26" height="21" viewBox="0 0 26 21" fill="none" xmlns="http://www.w3.org/2000/svg">
<path d="M24.5544 16.3354H15.0834C15.0544 17.1093 14.5087 17.5854 13.8044 17.5854H11.4294C10.6994 17.5854 10.1396 16.903 10.1494 16.3354H0.804443C0.460693 16.3354 0.179443 16.6167 0.179443 16.9604V17.5854C0.179443 18.9604 1.30444 20.0854 2.67944 20.0854H22.6794C24.0544 20.0854 25.1794 18.9604 25.1794 17.5854V16.9604C25.1794 16.6167 24.8982 16.3354 24.5544 16.3354ZM22.6794 1.96045C22.6794 0.929199 21.8357 0.0854492 20.8044 0.0854492H4.55444C3.52319 0.0854492 2.67944 0.929199 2.67944 1.96045V15.0854H22.6794V1.96045ZM20.1794 12.5854H5.17944V2.58545H20.1794V12.5854Z" fill="white" fill-opacity="0.6"/>
</svg>
