<svg width="35" height="32" viewBox="0 0 35 32" fill="none" xmlns="http://www.w3.org/2000/svg">
<rect x="5.99854" y="6.11841" width="22.8156" height="19.014" fill="white"/>
<path d="M17.4065 0C8.08966 0 0.541016 6.99367 0.541016 15.6255C0.541016 24.2573 8.08966 31.251 17.4065 31.251C26.7233 31.251 34.2719 24.2573 34.2719 15.6255C34.2719 6.99367 26.7233 0 17.4065 0ZM25.6896 10.7047L22.9217 22.7893C22.7177 23.6462 22.1669 23.8541 21.3984 23.4508L17.182 20.5715L15.1487 22.386C14.9242 22.594 14.7338 22.7704 14.2986 22.7704L14.5978 18.7947L22.4117 12.2547C22.7517 11.9774 22.3369 11.8199 21.888 12.0972L12.2312 17.7299L8.06926 16.5265C7.16478 16.2618 7.14438 15.6885 8.25968 15.2853L24.5199 9.4761C25.2747 9.22408 25.9344 9.64622 25.6896 10.7047Z" fill="#106EB2"/>
</svg>
