<svg width="41" height="41" viewBox="0 0 41 41" fill="none" xmlns="http://www.w3.org/2000/svg">
<rect x="11.0215" y="11.38" width="19.039" height="18.5818" fill="white"/>
<path d="M39.7052 6.92954C39.2451 4.466 37.8897 2.52579 36.1688 1.86736C33.0494 0.670898 20.541 0.670898 20.541 0.670898C20.541 0.670898 8.03273 0.670898 4.91328 1.86736C3.19231 2.5259 1.83689 4.466 1.37685 6.92954C0.541016 11.3949 0.541016 20.7113 0.541016 20.7113C0.541016 20.7113 0.541016 30.0278 1.37685 34.4931C1.83689 36.9566 3.19231 38.816 4.91328 39.4744C8.03273 40.6709 20.541 40.6709 20.541 40.6709C20.541 40.6709 33.0493 40.6709 36.1688 39.4744C37.8897 38.816 39.2451 36.9566 39.7052 34.4931C40.541 30.0278 40.541 20.7113 40.541 20.7113C40.541 20.7113 40.541 11.3949 39.7052 6.92954ZM16.4501 29.17V12.2527L26.9046 20.7115L16.4501 29.17Z" fill="#DB1B24"/>
</svg>
